<?xml version="1.0" encoding="UTF-8"?>
<svg version="1.1" viewBox="0 0 1024 1024" width="1024" height="1024" xmlns="http://www.w3.org/2000/svg">
  <g transform="translate(-330, -320) scale(1.65)">
    <path transform="translate(280,218)" d="m0 0h6l17 9 23 15 16 11 19 14 11 9 14 12 17 16 19 19 1 2h52l127 1 2-4 32-32 8-7 13-11 13-10 15-11 27-18 19-12 7-3h6l4 2 3 7 1 14v87l-2 28-4 30-6 30-8 31 1 6 15 34 12 29 18 43 10 24 1 5-3 5-9 6-64 38-16 10-22 14-18 13-10 8-14 12-7 7-7 8-11 12-9 11-22 28-13 16-15 15-13 8-9 4-9 2h-13l-14-4-12-7-11-9-7-7-11-14-16-21-11-14-12-14-9-10-18-18-14-11-18-13-44-28-28-17-29-17-13-8-2-3v-7l50-120 6-15-8-32-7-38-4-40-1-17v-77l1-16 2-6z" fill="#6154FB"/>
    <path transform="translate(295,251)" d="m0 0 5 2 20 14 14 10 16 12 13 11 11 9 8 8 8 7 47 47 7 8 19 19 5 4v82l-8 8-2 4-1 28-4-2-17-17-8-7-20-20-8-7v-3l4-4 2-4v-12l-3-6-6-5-10-2-9 3-5 6-2 4v11l5 8 11 6 18 18 8 7 28 28 8 7 20 20v135l-3 6v7l2 5 4 2 7 7 8 7 8 8 11 9v3l-8 7-4 1h-15l-11-4-9-7-9-9-15-20-10-14-3-20-5-10-11-13-10-10-7-8-18-18-8-7-7-7-7-3-55-1-20-11-13-5 2-5 11-25 3-8h44l30 30 7 8 23 23 7 8 17 17 8 7 13 13 8 7 8 8 7 1 1-1v-80l-4-20-6-16-9-14-9-10-14-9-13-5-23-5-30-5h-5l19 19 5 6 7 16 9 12 10 7 12 5 13 3 20 4 4 5 3 10 1 9v26l-1 24-7-6-74-74-7-8-11-11-7-8-7-6-2-1-41-1 10-25 17-39 6-14 9-11 14-15 10-10 8-7 11-11 8-7 7-7 7 6 26 26 7 8 3 3 1 10 4 3 8 1 6-3 2-3v-7l-5-4-8-1-12-12-7-8-36-36-11-9-8-7-20-14-6-4 6 34 4 23-32 32-2-4-7-34-5-33-3-32-1-23v-35z" fill="#FCFCFD"/>
    <path transform="translate(728,251)" d="m0 0h1l1 6v50l-2 28-4 32-7 36-5 21-7-6-24-24 1-10 8-48-15 10-13 10-13 12-14 14 2 4 17 16 9 9 8 7 30 30 9 13 15 33 15 35 1 3-25 1-7 4-14 15-23 23-8 7-9 9-8 6h-33l-6 3-5 6-2 6-1 7v27l2 7 14 15 3 4-2 4-11 13-13 17-8 10h-1l-1-62v-56l3-14 5-8 2-2 27-5 14-5 11-7 9-10 5-11 3-8 27-27 2-3-8-7-15-16-12-13-10-11v-13l-4-6-6-3h-8l-5 3h-2l-2 5-1 8 3 7 5 4 3 1h11l7 7 7 8 15 16 10 11-3 2-34 7h-3l-3-12-4-5-8-7-16-17-17-17v-35l1-5 6-4 4-5 1-3v-11l-3-6-6-5-3-1h-12l-6 3-4 5-2 6 1 10 4 6 5 4 2 1v42l7 8 15 16 26 26v10l-19 10-12 10-9 13-7 15-4 13-3 19v139l-8 9-11 7-8 3h-14l-7-1-8-8 5-5 13-12 8-7 14-14 1-7-3-7-1-19v-112l1-17 16-17 12-14 6-9v-5l-9-10-22-22-8-7-3-3v-86l1-21 61-1 8-4 17-17 8-7 13-12 11-9 16-13 36-26z" fill="#FDFDFE"/>
    <path transform="translate(478,347)" d="m0 0h49l1 117 16 16 8 7 15 15-2 4-8 10-9 10-5 7-1 3v147h-21l-1-155-12-12-1-6 1-11 1-118-3-5-28-28z" fill="#FDFDFE"/>
    <path transform="translate(461,357)" d="m0 0h8l11 11 8 7 9 9-1 112-1 20 3 8 10 10v149l-27 1-1-137-11-11v-37l9-10 1-4v-87l-32-32-8-7v-1z" fill="#FDFDFE"/>
    <path transform="translate(717,545)" d="m0 0h30l13 29 3 8-15 7-25 12-22 12-24 15-16 11-13 10-10 8-9 8-4-2-9-11-5-5v-32l2-5 2-2 36-1 8-5 11-11 8-7 15-15 8-7 14-15z" fill="#FDFDFE"/>
    <path transform="translate(319,612)" d="m0 0h31l30 30 8 7 9 9 9 11 5 7 1 5-21-18-15-12-19-14-22-14-16-10z" fill="#FDFDFE"/>
    <path transform="translate(484,772)" d="m0 0 18 1h38l-4 4-11 5-3 1h-17l-11-4-10-6z" fill="#FDFDFE"/>
    <path transform="translate(582,385)" d="m0 0h7l4 5-1 6-5 4-6-1-3-3v-7z" fill="#FDFDFE"/>
    <path transform="translate(385,446)" d="m0 0h7l4 4v6l-3 4-5 1-5-2-2-3 1-7z" fill="#FDFDFE"/>
  </g>
</svg>
